<svg width="238" height="239" viewBox="0 0 238 239" fill="none" xmlns="http://www.w3.org/2000/svg">
<ellipse cx="118.676" cy="119.373" rx="77.3714" ry="46.7344" transform="rotate(-17.0564 118.676 119.373)" fill="#FFD12E"/>
<path d="M109.614 142.979C96.8407 146.412 88.0808 140.416 84.9791 128.875C81.8925 117.389 86.4516 107.754 99.2254 104.321C111.943 100.903 120.718 106.955 123.805 118.44C126.906 129.982 122.332 139.561 109.614 142.979ZM106.859 132.726C113.246 131.01 114.355 128.429 112.488 121.482C110.621 114.535 108.368 112.857 101.981 114.574C95.5378 116.305 94.4292 118.886 96.2962 125.833C98.1633 132.78 100.416 134.458 106.859 132.726ZM152.794 130.774L142.261 133.604L135.335 107.833L125.306 110.528L123.394 103.413L124.795 103.036C128.885 101.937 131.852 100.238 132.901 95.8717L142.706 93.2368L152.794 130.774Z" fill="#120B2C"/>
</svg>
