<svg width="181" height="156" viewBox="0 0 181 156" fill="none" xmlns="http://www.w3.org/2000/svg">
<ellipse cx="90.2505" cy="77.542" rx="77.3714" ry="46.7344" transform="rotate(27.9436 90.2505 77.542)" fill="white"/>
<path d="M62.6511 83.9886C51.1913 77.3836 49.2368 66.9498 55.2044 56.5957C61.1431 46.2919 71.18 42.7025 82.6399 49.3075C94.0495 55.8835 95.975 66.3676 90.0363 76.6714C84.0687 87.0255 74.0607 90.5646 62.6511 83.9886ZM67.9525 74.7906C73.6824 78.0931 76.2911 77.0522 79.8833 70.8196C83.4755 64.5871 83.0684 61.808 77.3385 58.5055C71.5583 55.1741 68.9496 56.215 65.3574 62.4475C61.7653 68.6801 62.1723 71.4591 67.9525 74.7906ZM114.932 113.452L83.5182 95.3459L86.9365 89.415C90.239 83.685 94.6121 82.2549 103.183 84.1144L114.011 86.4716C116.577 87.0136 117.808 86.8527 118.706 85.2945C119.691 83.5856 119.675 82.1032 114.549 79.1484C108.919 75.9038 106.851 76.5869 105.084 79.6529L104.708 80.3063L95.4594 74.976L95.894 74.2221C99.8048 67.4366 107.992 63.9195 119.854 70.7563C130.51 76.8977 132.038 84.0056 128.069 90.8915C124.419 97.2246 118.488 97.7567 111.587 95.7882L102.976 93.3026C100.446 92.5808 98.6846 92.0346 97.6997 93.7435L107.815 98.0337L119.828 104.957L114.932 113.452Z" fill="#120B2C"/>
</svg>
