<svg width="178" height="143" viewBox="0 0 178 143" fill="none" xmlns="http://www.w3.org/2000/svg">
<ellipse cx="88.9943" cy="71.4056" rx="77.3714" ry="46.7344" transform="rotate(-21.0498 88.9943 71.4056)" fill="#C0A9FF"/>
<path d="M77.9503 99.1488C65.6059 103.9 56.2667 98.8535 51.9742 87.7003C47.7026 76.6012 51.2283 66.5417 63.5727 61.7909C75.8629 57.0608 85.223 62.1611 89.4946 73.2602C93.787 84.4134 90.2405 94.4187 77.9503 99.1488ZM74.1371 89.2408C80.3093 86.8654 81.1417 84.1829 78.5579 77.4693C75.9741 70.7557 73.5581 69.3234 67.3859 71.6988C61.1596 74.0951 60.3271 76.7776 62.9109 83.4912C65.4947 90.2048 67.9108 91.6371 74.1371 89.2408ZM118.47 83.5543C106.234 88.2635 98.7237 85.8702 95.4106 77.2616L95.0772 76.3953L105.906 72.2279L106.281 73.2025C107.323 75.9096 107.789 76.4759 114.232 73.9963C120.404 71.6209 121.82 70.4543 120.966 68.2345C120.278 66.4478 119.02 66.2482 116.638 67.165L105.864 71.3116L102.655 62.9737L112.671 59.1189C114.674 58.3479 115.053 57.394 114.532 56.0405C113.865 54.3079 112.662 54.0874 107.248 56.1711C101.671 58.3174 100.946 59.3421 101.988 62.0492L102.051 62.2117L91.2224 66.3791L91.2015 66.3249C88.0968 58.2578 92.127 50.8014 104.471 46.0505C114.542 42.1748 121.24 43.2646 123.761 49.8158C125.386 54.0389 123.883 57.7253 119.273 60.1212L119.544 60.8251C125.187 59.3369 129.848 60.4647 131.974 65.9872C134.724 73.1339 129.623 79.2619 118.47 83.5543Z" fill="#120B2C"/>
</svg>
