<svg width="181" height="156" viewBox="0 0 181 156" fill="none" xmlns="http://www.w3.org/2000/svg">
<ellipse cx="90.2505" cy="77.542" rx="77.3714" ry="46.7344" transform="rotate(27.9436 90.2505 77.542)" fill="#592FCB"/>
<path d="M61.6511 85.9886C50.1913 79.3836 48.2368 68.9498 54.2044 58.5957C60.1431 48.2919 70.18 44.7025 81.6399 51.3075C93.0495 57.8835 94.975 68.3676 89.0363 78.6714C83.0687 89.0255 73.0607 92.5646 61.6511 85.9886ZM66.9525 76.7906C72.6824 80.0931 75.2911 79.0522 78.8833 72.8196C82.4755 66.5871 82.0684 63.808 76.3385 60.5055C70.5583 57.1741 67.9496 58.215 64.3574 64.4475C60.7653 70.6801 61.1723 73.4591 66.9525 76.7906ZM113.078 114.959L103.628 109.513L107.134 103.431L85.8727 91.1773L89.5518 84.7939L121.53 74.9681L132.487 81.2834L121.479 100.383L126.002 102.99L121.107 111.485L116.583 108.877L113.078 114.959ZM103.937 90.2728L112.029 94.9369L116.809 86.6436L116.156 86.267L104.314 89.6194L103.937 90.2728Z" fill="white"/>
</svg>
