<svg width="278" height="185" viewBox="0 0 278 185" fill="none" xmlns="http://www.w3.org/2000/svg">
<path d="M0.79731 45.106C0.356968 42.3022 2.2729 39.6723 5.07666 39.232L114.526 22.0425L117.94 43.7761L3.41335 61.7629L0.79731 45.106Z" fill="#FFD12E"/>
<path d="M143.763 39.7205L117.94 43.7761L114.526 22.0425L114.555 22.0379C115.701 26.4397 121.854 29.0964 128.696 28.0219C135.537 26.9473 140.58 22.5322 140.321 17.9914L140.349 17.9869L143.763 39.7205Z" fill="#FFD12E"/>
<path d="M140.35 17.9868L249.799 0.797305C252.603 0.356964 255.233 2.27289 255.673 5.07666L258.289 21.7336L143.763 39.7204L140.35 17.9868Z" fill="#FFD12E"/>
<g clip-path="url(#clip0_2507_433)">
<rect width="258" height="62" transform="translate(3.41357 61.7629) rotate(-8.92562)" fill="#FFD12E"/>
<path d="M103.282 96.6911L76.6682 100.871L70.4311 61.1577L95.6816 57.192C104.276 55.8422 109.075 58.5505 110.052 64.7742C110.853 69.8718 108.753 73.9063 101.568 75.3384L101.661 75.9312C109.651 74.9801 114.021 78.0593 114.887 83.5717C115.939 90.2696 112.766 95.2017 103.282 96.6911ZM83.0885 69.4341L83.8798 74.4724L96.8607 72.4337C99.1131 72.0799 99.6627 71.3255 99.3741 69.488C99.0855 67.6506 98.0847 67.0789 95.773 67.442L83.0885 69.4341ZM85.3134 83.6005L86.1791 89.1129L100.286 86.8973C102.954 86.4784 103.7 85.8146 103.346 83.5622C103.001 81.3691 102.147 80.9567 99.4205 81.3849L85.3134 83.6005ZM156.798 88.2862L119.752 94.1044L118.654 87.1102C117.592 80.353 120.185 76.3625 128.292 72.2954L138.54 67.1633C140.958 65.9331 141.845 65.0043 141.556 63.1668C141.24 61.1515 140.264 59.9686 134.218 60.9181C127.58 61.9607 126.359 63.8531 126.926 67.4688L127.047 68.2393L116.141 69.9522L116.002 69.0631C114.745 61.0612 119.053 52.9141 133.041 50.7172C145.607 48.7436 151.452 53.4741 152.727 61.5945C153.9 69.063 149.471 73.3421 142.637 76.2374L134.091 79.8269C131.585 80.8885 129.813 81.592 130.129 83.6073L141.058 80.4939L155.225 78.269L156.798 88.2862ZM188.282 83.3416L161.668 87.5214L155.431 47.8082L180.681 43.8425C189.276 42.4927 194.074 45.201 195.052 51.4247C195.852 56.5222 193.753 60.5568 186.568 61.9889L186.661 62.5817C194.65 61.6306 199.021 64.7098 199.887 70.2222C200.938 76.9201 197.765 81.8521 188.282 83.3416ZM168.088 56.0846L168.879 61.1229L181.86 59.0842C184.113 58.7304 184.662 57.976 184.374 56.1385C184.085 54.301 183.084 53.7294 180.773 54.0925L168.088 56.0846ZM170.313 70.251L171.179 75.7634L185.286 73.5478C187.953 73.1289 188.699 72.4651 188.345 70.2127C188.001 68.0196 187.147 67.6072 184.42 68.0354L170.313 70.251Z" fill="#120B2C"/>
</g>
<path d="M13.0327 123.012L127.56 105.025L130.973 126.759L21.5227 143.948C18.719 144.389 16.0891 142.473 15.6488 139.669L13.0327 123.012Z" fill="#FFD12E"/>
<path d="M156.795 122.703L156.766 122.708C155.621 118.306 149.468 115.649 142.627 116.724C135.786 117.798 130.743 122.213 131.002 126.754L130.973 126.759L127.56 105.025L153.381 100.97L156.795 122.703Z" fill="#FFD12E"/>
<path d="M153.381 100.97L267.909 82.983L270.525 99.6399C270.965 102.444 269.049 105.074 266.245 105.514L156.795 122.704L153.381 100.97Z" fill="#FFD12E"/>
<defs>
<clipPath id="clip0_2507_433">
<rect width="258" height="62" fill="white" transform="translate(3.41357 61.7629) rotate(-8.92562)"/>
</clipPath>
</defs>
</svg>
