<svg width="69" height="73" viewBox="0 0 69 73" fill="none" xmlns="http://www.w3.org/2000/svg">
<path d="M21.1626 23.8962L1.10303 63.6897C-0.433885 66.7386 3.50336 69.5766 5.90998 67.1547L18.8557 54.1262C20.1938 52.7796 22.4304 52.9987 23.4817 54.5794L34.5722 71.2546C35.8947 73.243 38.8974 72.9643 39.8313 70.7663L67.9556 4.57372C69.376 1.23084 64.7433 -1.28865 62.7092 1.72042L37.5418 38.9501C36.1913 40.9479 33.1551 40.6166 32.2672 38.3746L26.6307 24.142C25.6775 21.7351 22.3279 21.5845 21.1626 23.8962Z" fill="url(#paint0_linear_2072_1926)"/>
<path d="M21.1626 23.8962L1.10303 63.6897C-0.433885 66.7386 3.50336 69.5766 5.90998 67.1547L18.8557 54.1262C20.1938 52.7796 22.4304 52.9987 23.4817 54.5794L34.5722 71.2546C35.8947 73.243 38.8974 72.9643 39.8313 70.7663L67.9556 4.57372C69.376 1.23084 64.7433 -1.28865 62.7092 1.72042L37.5418 38.9501C36.1913 40.9479 33.1551 40.6166 32.2672 38.3746L26.6307 24.142C25.6775 21.7351 22.3279 21.5845 21.1626 23.8962Z" fill="url(#paint1_linear_2072_1926)"/>
<defs>
<linearGradient id="paint0_linear_2072_1926" x1="82.9816" y1="-24.8707" x2="-9.73095" y2="79.8361" gradientUnits="userSpaceOnUse">
<stop stop-color="#FFF1B6"/>
<stop offset="1" stop-color="#EBB52A"/>
</linearGradient>
<linearGradient id="paint1_linear_2072_1926" x1="73.366" y1="-6.28628" x2="5.11419" y2="72.0142" gradientUnits="userSpaceOnUse">
<stop stop-color="#FC9B5A" stop-opacity="0.4"/>
<stop offset="1" stop-color="#FF7E28"/>
</linearGradient>
</defs>
</svg>
