<svg width="801" height="169" viewBox="0 0 801 169" fill="none" xmlns="http://www.w3.org/2000/svg">
<path d="M139.746 32.4503V96.7175L124.81 104.468L97.0379 120.498V56.378L69.2747 40.348H69.2656L41.5024 24.3179L69.2656 8.28789H69.2747L83.9409 0L111.713 16.0295L139.746 32.4503Z" fill="#582FCB"/>
<path d="M97.0387 120.496V168.77L0.116699 112.569V0.183228L41.5033 24.3155V88.4357L69.2665 104.466H69.2755L97.0387 120.496Z" fill="#582FCB"/>
<path d="M711.428 118.821H687.538V33.6802H719.942L735.573 69.0071L743.96 90.9912H745.612L753.618 69.0071L768.486 33.6802H800.891V118.821H777V83.6208L777.89 69.3884H776.238L771.409 83.6208L758.701 113.738H729.727L717.02 83.6208L712.191 69.3884H710.539L711.428 83.6208V118.821Z" fill="#120B2C"/>
<path d="M676.092 118.821H652.203V33.6802H676.092V118.821Z" fill="#120B2C"/>
<path d="M612.633 118.821H588.743V55.1559H558.626V33.6802H642.622V55.1559H612.633V118.821Z" fill="#120B2C"/>
<path d="M514.5 120.098C488.45 120.098 472.566 110.821 472.566 89.2184V88.4559H496.456V91.1245C496.456 96.8429 498.489 98.3678 514.5 98.3678C528.987 98.3678 530.512 97.2241 530.512 93.4119C530.512 90.362 528.86 89.0913 521.871 88.2018L495.185 84.6437C479.301 82.4834 471.295 73.9693 471.295 60.2452C471.295 46.6481 481.843 32.4156 512.594 32.4156C539.661 32.4156 552.623 44.2337 552.623 63.295V64.0574H528.733V62.1513C528.733 56.0517 526.064 54.0185 510.053 54.0185C497.854 54.0185 495.185 55.6705 495.185 59.3556C495.185 62.0242 496.71 63.295 501.285 63.9304L527.97 67.8697C548.81 70.9195 554.402 81.5938 554.402 92.5223C554.402 107.136 543.219 120.098 514.5 120.098Z" fill="#120B2C"/>
<path d="M462.6 118.821H386.991V33.6802H462.6V55.1559H410.881V65.322H460.694V86.6706H410.881V97.345H462.6V118.821Z" fill="#120B2C"/>
<path d="M329.454 120.091C299.719 120.091 285.995 105.732 285.995 83.1125V33.6802H309.885V81.2064C309.885 93.2786 313.316 96.9637 329.454 96.9637C345.593 96.9637 349.024 93.2786 349.024 81.2064V33.6802H372.914V83.1125C372.914 105.732 359.19 120.091 329.454 120.091Z" fill="#120B2C"/>
<path d="M269.302 136.745H237.915L224.064 119.844C197.887 117.81 182.638 101.036 182.638 76.2567C182.638 49.6979 200.174 32.4156 229.782 32.4156C260.153 32.4156 277.435 49.6979 277.435 76.2567C277.435 95.9534 268.031 110.44 250.749 116.667L269.302 136.745ZM229.782 97.2241C247.064 97.2241 252.02 93.1577 252.02 76.2567C252.02 59.3556 247.064 55.2892 229.782 55.2892C212.5 55.2892 208.052 59.3556 208.052 76.2567C208.052 93.1577 212.5 97.2241 229.782 97.2241Z" fill="#120B2C"/>
</svg>
